<?xml version="1.0" standalone="no"?>
<!DOCTYPE svg PUBLIC "-//W3C//DTD SVG 20010904//EN"
 "http://www.w3.org/TR/2001/REC-SVG-20010904/DTD/svg10.dtd">
<svg version="1.0" xmlns="http://www.w3.org/2000/svg"
 width="1120.000000pt" height="1120.000000pt" viewBox="0 0 1120.000000 1120.000000"
 preserveAspectRatio="xMidYMid meet">

<g transform="translate(0.000000,1120.000000) scale(0.100000,-0.100000)"
fill="#000000" stroke="none">
<path d="M5675 8118 c0 -240 -33 -373 -132 -537 -111 -182 -206 -282 -443
-462 -410 -313 -575 -594 -596 -1019 -20 -389 106 -810 304 -1013 84 -86 228
-168 370 -212 l23 -7 -25 39 c-40 61 -122 261 -142 348 -26 113 -27 409 0 550
23 126 66 255 121 365 84 167 168 266 345 409 277 223 432 430 490 655 92 360
-2 727 -252 990 l-63 66 0 -172z"/>
<path d="M4164 7731 c-62 -28 -106 -95 -90 -137 5 -14 10 -12 27 10 15 19 30
26 54 26 51 0 77 -27 82 -87 6 -56 -4 -105 -49 -258 -35 -119 -48 -302 -28
-398 18 -89 82 -206 154 -283 l63 -68 6 73 c5 61 16 94 61 190 118 249 119
278 27 586 -75 250 -106 310 -177 345 -50 25 -77 25 -130 1z"/>
<path d="M6127 7068 c-16 -112 -104 -308 -190 -423 -81 -109 -167 -215 -218
-270 -127 -136 -296 -395 -367 -560 -49 -114 -88 -255 -102 -368 -15 -115 -1
-281 30 -374 25 -72 101 -233 110 -233 15 0 179 104 245 155 87 67 192 168
271 261 156 182 330 535 407 824 29 109 31 125 31 315 1 218 -6 262 -65 431
-31 90 -127 284 -139 284 -4 0 -10 -19 -13 -42z"/>
<path d="M7215 6663 c-60 -5 -138 -25 -193 -50 -89 -39 -239 -144 -328 -230
-178 -171 -268 -320 -389 -643 -26 -69 -75 -181 -109 -250 -33 -69 -62 -128
-64 -132 -2 -4 36 10 84 32 48 22 141 63 208 91 246 102 325 146 397 220 97
99 145 203 210 449 71 273 142 416 237 478 12 8 22 18 22 22 0 10 -36 16 -75
13z"/>
<path d="M3523 6540 c-31 -13 -29 -25 7 -40 46 -19 132 -119 177 -206 23 -43
65 -153 93 -244 66 -207 91 -268 146 -351 67 -102 152 -173 330 -278 87 -52
184 -109 214 -127 30 -18 57 -31 59 -29 2 3 -9 30 -24 62 -87 184 -165 553
-165 783 l0 66 -72 70 c-118 115 -256 200 -428 265 -74 28 -100 32 -200 35
-63 2 -125 0 -137 -6z"/>
<path d="M7386 6039 c-86 -20 -169 -71 -246 -148 -73 -75 -119 -129 -154 -183
l-18 -28 41 0 c23 0 90 -12 149 -26 92 -23 121 -25 212 -21 70 4 125 12 165
26 111 40 239 70 420 102 266 45 343 77 380 155 20 42 17 99 -5 99 -9 0 -14
-8 -13 -20 1 -15 -9 -27 -34 -40 -30 -17 -55 -20 -142 -19 -92 1 -122 6 -225
38 -202 63 -271 76 -386 75 -58 -1 -122 -5 -144 -10z"/>
<path d="M3445 5466 c-132 -26 -267 -89 -367 -173 -48 -40 -128 -130 -128
-144 0 -5 44 -9 98 -9 125 0 203 -13 328 -55 112 -37 209 -91 399 -223 261
-180 441 -269 627 -309 105 -22 422 -25 508 -5 137 34 305 101 383 154 l36 24
-72 23 c-219 70 -325 124 -752 383 -351 213 -457 265 -649 313 -126 32 -306
41 -411 21z"/>
<path d="M6762 5464 c-180 -29 -390 -111 -618 -241 -167 -95 -235 -147 -406
-307 -77 -72 -162 -146 -190 -165 l-51 -34 24 -18 c44 -33 183 -98 249 -116
106 -28 335 -24 471 10 265 65 442 156 744 382 184 138 296 179 488 180 78 0
117 4 117 11 0 19 -55 88 -106 133 -61 54 -203 123 -309 151 -107 28 -290 34
-413 14z"/>
<path d="M5371 4534 c-23 -174 -53 -238 -128 -270 -33 -14 -174 -37 -300 -49
-72 -7 -73 -7 -73 -36 0 -16 3 -29 8 -29 28 0 320 -41 351 -50 89 -24 111 -66
136 -255 21 -163 19 -157 52 -153 27 3 28 5 40 103 23 185 33 224 67 259 47
47 68 52 404 92 38 5 42 8 42 34 0 27 -2 28 -62 35 -134 14 -284 36 -315 46
-42 14 -89 69 -104 121 -16 58 -38 187 -39 221 0 24 -4 27 -33 27 l-34 0 -12
-96z"/>
<path d="M2929 3420 c-50 -26 -97 -83 -105 -125 -11 -60 0 -139 25 -173 12
-18 43 -44 69 -59 110 -65 272 -10 307 106 22 71 -4 180 -52 223 -54 49 -177
63 -244 28z m181 -58 c60 -43 78 -142 37 -203 -63 -94 -198 -88 -250 12 -21
40 -16 116 11 157 38 58 143 76 202 34z"/>
<path d="M3562 3238 l3 -203 25 0 25 0 3 138 c1 75 6 137 10 137 5 0 54 -62
111 -138 96 -129 105 -138 132 -134 l29 4 0 199 0 199 -30 0 -30 0 0 -140 c0
-77 -4 -140 -8 -140 -4 0 -54 63 -111 140 -91 125 -106 140 -132 140 l-29 0 2
-202z"/>
<path d="M4283 3318 c70 -119 72 -125 77 -203 l5 -80 30 0 30 0 1 75 c1 70 5
81 48 158 26 46 58 101 71 122 14 22 25 42 25 45 0 3 -13 5 -29 5 -27 0 -35
-9 -87 -97 -65 -111 -53 -112 -131 20 -43 71 -48 77 -79 77 l-33 0 72 -122z"/>
<path d="M4895 3344 c36 -53 65 -98 65 -99 0 -2 -29 -47 -65 -100 -36 -54 -65
-102 -65 -106 0 -5 14 -9 30 -9 28 0 36 9 82 80 28 44 53 80 57 80 3 0 29 -35
56 -78 48 -73 52 -77 88 -77 34 0 49 8 29 17 -4 2 -35 46 -70 100 l-62 96 64
96 64 96 -36 0 c-35 0 -40 -5 -81 -70 -25 -39 -47 -70 -50 -70 -3 0 -26 32
-50 70 -41 67 -45 70 -82 70 l-39 0 65 -96z"/>
<path d="M5450 3240 l0 -200 125 0 125 0 0 25 c0 24 -2 24 -92 27 l-93 3 -3
173 -2 172 -30 0 -30 0 0 -200z"/>
<path d="M6100 3434 c-36 -14 -92 -60 -105 -85 -80 -153 13 -314 180 -313 123
1 196 72 203 195 5 81 -19 133 -81 176 -33 23 -52 28 -111 30 -39 1 -78 0 -86
-3z m122 -54 c58 -17 93 -69 93 -140 0 -72 -35 -123 -94 -141 -107 -32 -203
51 -188 163 7 54 31 86 80 109 49 22 59 22 109 9z"/>
<path d="M6630 3410 l0 -30 63 0 62 0 0 -172 0 -172 30 -1 30 0 3 173 2 172
59 0 c32 0 60 2 63 5 3 3 3 17 0 30 l-4 25 -154 0 -154 0 0 -30z"/>
<path d="M7222 3283 c3 -174 9 -191 73 -229 42 -26 140 -24 186 2 61 36 71 67
76 235 l5 149 -36 0 -36 0 0 -141 c0 -77 -5 -149 -10 -160 -13 -24 -61 -49
-95 -49 -41 0 -82 26 -94 61 -6 18 -11 90 -11 160 l0 129 -31 0 -30 0 3 -157z"/>
<path d="M7932 3420 c-39 -24 -56 -62 -48 -109 7 -44 29 -67 85 -87 101 -35
121 -47 128 -72 4 -19 0 -30 -17 -44 -31 -25 -77 -23 -136 7 l-49 25 -17 -23
c-17 -21 -17 -23 3 -40 12 -9 46 -24 76 -33 77 -22 137 -12 180 31 35 35 40
61 22 113 -13 37 -36 53 -109 77 -74 24 -100 43 -100 71 0 26 34 54 67 54 12
0 43 -7 69 -16 43 -14 47 -14 60 3 19 25 13 36 -27 50 -56 19 -149 16 -187 -7z"/>
</g>
</svg>
